<svg width="285" height="85" viewBox="0 0 285 85" fill="none" xmlns="http://www.w3.org/2000/svg">
<path d="M41.3513 0V0C18.5136 -1.99654e-06 -2.0692e-05 18.5136 -2.26885e-05 41.3513L-2.28894e-05 43.6487C-2.48859e-05 66.4864 18.5136 85 41.3513 85V85L41.3513 0Z" fill="#8759F2"/>
<path d="M41.3512 85C30.5668 85 21.8242 75.486 21.8242 63.75C21.8242 52.0139 30.5668 42.5 41.3512 42.5L41.3512 85Z" fill="#FF3E80"/>
<path d="M41.3515 85C53.4047 85 63.1758 75.486 63.1758 63.75C63.1758 52.014 53.4047 42.5 41.3515 42.5L41.3515 85Z" fill="#FFC300"/>
<path fill-rule="evenodd" clip-rule="evenodd" d="M275.297 85C274.029 85 273 83.9715 273 82.7027V2.2973C273 1.02853 274.029 0 275.297 0H282.189C283.458 0 284.486 1.02853 284.486 2.2973V82.7027C284.486 83.9715 283.458 85 282.189 85H275.297Z" fill="#FED812"/>
<path d="M103.533 30.7486H93.8805V57H87.388V30.7486H77.8657V25.4897H103.533V30.7486ZM101.369 45.0754C101.369 42.7525 101.816 40.6822 102.71 38.8642C103.605 37.0463 104.889 35.6396 106.563 34.6441C108.251 33.6486 110.206 33.1508 112.427 33.1508C115.587 33.1508 118.163 34.1175 120.154 36.0508C122.159 37.9842 123.277 40.61 123.508 43.9284L123.551 45.5299C123.551 49.1224 122.549 52.008 120.543 54.1866C118.538 56.3507 115.847 57.4328 112.471 57.4328C109.095 57.4328 106.397 56.3507 104.377 54.1866C102.371 52.0224 101.369 49.0791 101.369 45.3568V45.0754ZM107.623 45.5299C107.623 47.7518 108.041 49.4543 108.878 50.6373C109.715 51.806 110.913 52.3903 112.471 52.3903C113.986 52.3903 115.169 51.8132 116.02 50.659C116.871 49.4903 117.297 47.6291 117.297 45.0754C117.297 42.8968 116.871 41.2088 116.02 40.0113C115.169 38.8138 113.971 38.215 112.427 38.215C110.898 38.215 109.715 38.8138 108.878 40.0113C108.041 41.1943 107.623 43.0339 107.623 45.5299ZM127.815 57V25.4897H137.51C140.28 25.4897 142.755 26.1173 144.933 27.3725C147.126 28.6133 148.836 30.3879 150.062 32.6964C151.289 34.9904 151.902 37.6018 151.902 40.5307V41.9807C151.902 44.9095 151.296 47.5137 150.084 49.7933C148.887 52.0729 147.191 53.8403 144.998 55.0955C142.805 56.3507 140.331 56.9856 137.575 57H127.815ZM134.307 30.7486V51.7843H137.445C139.985 51.7843 141.925 50.9547 143.267 49.2956C144.609 47.6364 145.294 45.263 145.323 42.1754V40.509C145.323 37.306 144.659 34.8822 143.332 33.2374C142.004 31.5782 140.064 30.7486 137.51 30.7486H134.307ZM155.256 45.0754C155.256 42.7525 155.704 40.6822 156.598 38.8642C157.493 37.0463 158.777 35.6396 160.45 34.6441C162.138 33.6486 164.093 33.1508 166.315 33.1508C169.475 33.1508 172.05 34.1175 174.041 36.0508C176.047 37.9842 177.165 40.61 177.396 43.9284L177.439 45.5299C177.439 49.1224 176.436 52.008 174.431 54.1866C172.426 56.3507 169.735 57.4328 166.359 57.4328C162.983 57.4328 160.285 56.3507 158.265 54.1866C156.259 52.0224 155.256 49.0791 155.256 45.3568V45.0754ZM161.511 45.5299C161.511 47.7518 161.929 49.4543 162.766 50.6373C163.603 51.806 164.8 52.3903 166.359 52.3903C167.874 52.3903 169.057 51.8132 169.908 50.659C170.759 49.4903 171.185 47.6291 171.185 45.0754C171.185 42.8968 170.759 41.2088 169.908 40.0113C169.057 38.8138 167.859 38.215 166.315 38.215C164.786 38.215 163.603 38.8138 162.766 40.0113C161.929 41.1943 161.511 43.0339 161.511 45.5299ZM199.232 51.7843H213.018V57H192.74V25.4897H199.232V51.7843ZM222.952 57H216.676V33.5837H222.952V57ZM216.308 27.524C216.308 26.5862 216.618 25.8143 217.238 25.2083C217.873 24.6024 218.732 24.2994 219.814 24.2994C220.881 24.2994 221.733 24.6024 222.367 25.2083C223.002 25.8143 223.32 26.5862 223.32 27.524C223.32 28.4762 222.995 29.2553 222.346 29.8613C221.711 30.4673 220.867 30.7703 219.814 30.7703C218.76 30.7703 217.909 30.4673 217.26 29.8613C216.625 29.2553 216.308 28.4762 216.308 27.524ZM240.806 50.5291C240.806 49.7645 240.424 49.1657 239.659 48.7329C238.909 48.2856 237.697 47.8888 236.023 47.5426C230.454 46.3739 227.67 44.0078 227.67 40.4441C227.67 38.3665 228.528 36.6352 230.245 35.2501C231.976 33.8506 234.234 33.1508 237.019 33.1508C239.991 33.1508 242.364 33.8506 244.139 35.2501C245.928 36.6496 246.822 38.4675 246.822 40.7038H240.568C240.568 39.8093 240.279 39.0735 239.702 38.4963C239.125 37.9048 238.224 37.609 236.997 37.609C235.944 37.609 235.129 37.8471 234.552 38.3232C233.975 38.7993 233.686 39.4053 233.686 40.1411C233.686 40.8336 234.011 41.3963 234.66 41.8292C235.324 42.2476 236.434 42.6155 237.993 42.9329C239.551 43.2359 240.864 43.5821 241.931 43.9717C245.235 45.1836 246.887 47.2829 246.887 50.2694C246.887 52.4047 245.971 54.1361 244.139 55.4634C242.307 56.7764 239.94 57.4328 237.04 57.4328C235.078 57.4328 233.332 57.0866 231.803 56.394C230.288 55.6871 229.098 54.7276 228.232 53.5157C227.367 52.2893 226.934 50.9692 226.934 49.5553H232.864C232.921 50.6662 233.332 51.5174 234.097 52.109C234.862 52.7005 235.886 52.9963 237.17 52.9963C238.368 52.9963 239.27 52.7727 239.875 52.3254C240.496 51.8637 240.806 51.2649 240.806 50.5291ZM258.422 27.827V33.5837H262.426V38.1717H258.422V49.8582C258.422 50.7239 258.588 51.3443 258.92 51.7194C259.252 52.0945 259.887 52.2821 260.825 52.2821C261.517 52.2821 262.13 52.2316 262.664 52.1306V56.8701C261.438 57.2453 260.175 57.4328 258.877 57.4328C254.491 57.4328 252.255 55.2182 252.168 50.7888V38.1717H248.749V33.5837H252.168V27.827H258.422Z" fill="black"/>
</svg>
